<svg width="95" height="50" viewBox="0 0 25.135 13.23" xmlns="http://www.w3.org/2000/svg"><g fill-rule="evenodd"><path d="M15.495 10.326c-1.451 1.069-3.555 1.64-5.366 1.64-2.54 0-4.826-.94-6.556-2.501-.136-.123-.014-.29.149-.195 1.867 1.086 4.175 1.74 6.559 1.74a13.03 13.03 0 005.003-1.024c.246-.104.452.16.211.34" fill="#f90"/><path d="M16.099 9.636c-.185-.238-1.227-.112-1.694-.057-.143.017-.164-.107-.036-.196.83-.583 2.19-.415 2.35-.22.158.197-.042 1.562-.821 2.212-.12.1-.234.047-.181-.085.175-.437.568-1.417.382-1.654" fill="#f90"/><path d="M14.438 5.263v-.567a.14.14 0 01.143-.144h2.541c.081 0 .147.059.147.144v.486c-.001.08-.07.188-.192.356l-1.316 1.88c.489-.013 1.005.06 1.449.31.1.057.127.14.135.22v.606c0 .083-.092.18-.187.13a2.927 2.927 0 00-2.685.004c-.088.048-.18-.048-.18-.13v-.576c0-.092 0-.25.093-.39l1.526-2.186h-1.328a.14.14 0 01-.146-.143m-9.27 3.54h-.772a.146.146 0 01-.138-.132V4.706c0-.08.066-.142.149-.142h.72a.146.146 0 01.14.133v.518h.015c.188-.501.541-.735 1.017-.735.484 0 .787.234 1.004.735.187-.501.612-.735 1.068-.735.324 0 .678.134.894.434.245.333.195.818.195 1.244V8.66a.147.147 0 01-.15.143h-.772a.147.147 0 01-.14-.143V6.556c0-.167.016-.584-.02-.743-.058-.266-.231-.341-.455-.341a.513.513 0 00-.462.325c-.08.2-.072.534-.072.76v2.1a.146.146 0 01-.149.144h-.772a.146.146 0 01-.14-.143V6.556c0-.442.073-1.093-.476-1.093-.556 0-.534.635-.534 1.093v2.102a.147.147 0 01-.15.143m14.288-4.323c1.147 0 1.768.985 1.768 2.237 0 1.21-.686 2.17-1.768 2.17-1.126 0-1.74-.985-1.74-2.212 0-1.235.621-2.195 1.74-2.195m.007.81c-.57 0-.606.776-.606 1.26s-.008 1.52.6 1.52c.598 0 .626-.836.626-1.344 0-.335-.014-.735-.115-1.052-.087-.276-.26-.384-.505-.384m3.248 3.514h-.77a.147.147 0 01-.139-.143V4.692a.146.146 0 01.148-.13h.717a.148.148 0 01.138.112v.606h.014c.216-.542.52-.8 1.054-.8.346 0 .685.124.902.466.202.318.202.852.202 1.235v2.497a.148.148 0 01-.149.125h-.775a.146.146 0 01-.137-.125V6.524c0-.434.05-1.07-.484-1.07-.188 0-.36.127-.447.319-.108.242-.123.483-.123.75V8.66a.149.149 0 01-.15.143m-10.3-1.894c0 .3.008.552-.145.819-.123.217-.318.35-.535.35-.296 0-.47-.225-.47-.56 0-.657.59-.777 1.15-.777v.168m.78 1.883a.161.161 0 01-.183.019c-.257-.213-.303-.313-.444-.516-.424.433-.725.562-1.274.562-.651 0-1.157-.4-1.157-1.204 0-.627.34-1.054.824-1.263.42-.185 1.006-.217 1.454-.268v-.1c0-.184.014-.401-.095-.56-.093-.143-.274-.201-.434-.201-.294 0-.556.15-.62.464-.013.07-.065.138-.135.14l-.75-.08c-.062-.013-.133-.064-.115-.161.172-.91.994-1.183 1.73-1.183.375 0 .867.1 1.164.385.376.35.34.82.34 1.33V7.36c0 .362.15.52.291.716.05.07.06.153-.003.205-.158.132-.438.376-.593.513v-.002M2.278 6.908c0 .3.007.552-.145.819-.123.217-.317.35-.535.35-.297 0-.47-.225-.47-.56 0-.657.591-.777 1.15-.777v.168m.78 1.883a.161.161 0 01-.183.019c-.257-.213-.303-.313-.444-.516-.424.433-.724.562-1.274.562-.65 0-1.157-.4-1.157-1.204 0-.627.34-1.054.824-1.263.42-.185 1.006-.217 1.454-.268v-.1c0-.184.014-.401-.094-.56-.094-.143-.275-.201-.434-.201-.294 0-.557.15-.622.464-.013.07-.064.138-.133.14l-.75-.08C.182 5.77.112 5.72.129 5.623c.173-.91.994-1.183 1.73-1.183.375 0 .867.1 1.163.385.377.35.34.82.34 1.33v1.204c0 .362.15.52.292.716.05.07.061.153-.002.205-.158.132-.438.376-.593.513l-.002-.002"/></g></svg>